{
  "accessors": [
    {
      "bufferView": 2,
      "componentType": 5126,
      "count": 7255,
      "max": [
        133.07203674316406,
        43.7494010925293,
        24.626888275146484
      ],
      "min": [
        -133.07205200195313,
        -56.60505676269531,
        -183.00680541992188
      ],
      "type": "VEC3"
    },
    {
      "bufferView": 2,
      "byteOffset": 87060,
      "componentType": 5126,
      "count": 7255,
      "max": [
        1.0,
        1.0,
        1.0
      ],
      "min": [
        -1.0,
        -1.0,
        -1.0
      ],
      "type": "VEC3"
    },
    {
      "bufferView": 3,
      "componentType": 5126,
      "count": 7255,
      "max": [
        1.0,
        1.0,
        1.0,
        1.0
      ],
      "min": [
        -1.0,
        -1.0,
        -1.0,
        -1.0
      ],
      "type": "VEC4"
    },
    {
      "bufferView": 1,
      "componentType": 5126,
      "count": 7255,
      "max": [
        0.9993037581443787,
        0.999500036239624
      ],
      "min": [
        0.0005000000237487257,
        0.0005000000237487257
      ],
      "type": "VEC2"
    },
    {
      "bufferView": 0,
      "componentType": 5125,
      "count": 21948,
      "type": "SCALAR"
    }
  ],
  "asset": {
    "extras": {
      "author": "KaramellGlass (https://sketchfab.com/KaramellGlass)",
      "license": "CC-BY-4.0 (http://creativecommons.org/licenses/by/4.0/)",
      "source": "https://sketchfab.com/3d-models/airplane-biplane-be48f3f906ed431b98b1bf03ab7aadd6",
      "title": "Airplane biplane"
    },
    "generator": "Sketchfab-12.94.0",
    "version": "2.0"
  },
  "bufferViews": [
    {
      "buffer": 0,
      "byteLength": 87792,
      "name": "floatBufferViews",
      "target": 34963
    },
    {
      "buffer": 0,
      "byteLength": 58040,
      "byteOffset": 87792,
      "byteStride": 8,
      "name": "floatBufferViews",
      "target": 34962
    },
    {
      "buffer": 0,
      "byteLength": 174120,
      "byteOffset": 145832,
      "byteStride": 12,
      "name": "floatBufferViews",
      "target": 34962
    },
    {
      "buffer": 0,
      "byteLength": 116080,
      "byteOffset": 319952,
      "byteStride": 16,
      "name": "floatBufferViews",
      "target": 34962
    }
  ],
  "buffers": [
    {
      "byteLength": 436032,
      "uri": "scene.bin"
    }
  ],
  "images": [
    {
      "uri": "textures/13_-_Default_baseColor.png"
    },
    {
      "uri": "textures/13_-_Default_metallicRoughness.png"
    },
    {
      "uri": "textures/13_-_Default_normal.png"
    }
  ],
  "materials": [
    {
      "doubleSided": true,
      "name": "13_-_Default",
      "normalTexture": {
        "index": 2
      },
      "occlusionTexture": {
        "index": 1
      },
      "pbrMetallicRoughness": {
        "baseColorTexture": {
          "index": 0
        },
        "metallicRoughnessTexture": {
          "index": 1
        }
      }
    }
  ],
  "meshes": [
    {
      "name": "Cylinder064_13 - Default_0",
      "primitives": [
        {
          "attributes": {
            "NORMAL": 1,
            "POSITION": 0,
            "TANGENT": 2,
            "TEXCOORD_0": 3
          },
          "indices": 4,
          "material": 0,
          "mode": 4
        }
      ]
    }
  ],
  "nodes": [
    {
      "children": [
        1
      ],
      "matrix": [
        1.0,
        0.0,
        0.0,
        0.0,
        0.0,
        -0.3277502059936521,
        -0.9447644352912904,
        0.0,
        0.0,
        0.9447644352912904,
        -0.3277502059936521,
        0.0,
        0.0,
        0.0,
        0.0,
        1.0
      ],
      "name": "Sketchfab_model"
    },
    {
      "children": [
        2
      ],
      "matrix": [
        1.0,
        0.0,
        0.0,
        0.0,
        0.0,
        0.0,
        1.0,
        0.0,
        0.0,
        -1.0,
        0.0,
        0.0,
        0.0,
        0.0,
        0.0,
        1.0
      ],
      "name": "7f572c9e58d44d6aadd1f922db233d57.fbx"
    },
    {
      "children": [
        3
      ],
      "name": "RootNode"
    },
    {
      "children": [
        4
      ],
      "matrix": [
        1.0,
        0.0,
        0.0,
        0.0,
        0.0,
        0.9999999403945916,
        1.2358041204285457e-06,
        0.0,
        0.0,
        -1.2358041204285457e-06,
        0.9999999403945916,
        0.0,
        0.0,
        16.564838409423828,
        -58.045654296875,
        1.0
      ],
      "name": "Cylinder064"
    },
    {
      "children": [
        5
      ],
      "matrix": [
        1.0,
        0.0,
        -0.0,
        0.0,
        0.0,
        1.0,
        0.0,
        0.0,
        0.0,
        0.0,
        1.0,
        0.0,
        -1.9073486328125e-06,
        -2.492034435272217,
        85.13188171386719,
        1.0
      ],
      "name": "Object_4"
    },
    {
      "mesh": 0,
      "name": "Cylinder064_13 - Default_0"
    }
  ],
  "samplers": [
    {
      "magFilter": 9729,
      "minFilter": 9987,
      "wrapS": 10497,
      "wrapT": 10497
    }
  ],
  "scene": 0,
  "scenes": [
    {
      "name": "Sketchfab_Scene",
      "nodes": [
        0
      ]
    }
  ],
  "textures": [
    {
      "sampler": 0,
      "source": 0
    },
    {
      "sampler": 0,
      "source": 1
    },
    {
      "sampler": 0,
      "source": 2
    }
  ]
}
